<?xml version="1.0" encoding="UTF-8"?>
<svg width="212px" height="54px" viewBox="0 0 212 54" version="1.1" xmlns="http://www.w3.org/2000/svg" xmlns:xlink="http://www.w3.org/1999/xlink">
    <title>amara</title>
    <g id="Logotype---black" stroke="none" stroke-width="1" fill="none" fill-rule="evenodd">
        <g id="amara" fill="#01060B">
            <path d="M27.4824798,21.0029458 C26.0104063,20.9524238 24.5852666,21.5606618 23.5498652,22.6813535 C22.5166217,23.8002919 22,25.2374165 22,26.9927271 C22,28.7480377 22.5157233,30.1899687 23.5471698,31.31852 C24.5818296,32.440408 26.0074792,33.0488636 27.4797844,32.9969277 C28.9579506,33.0458639 30.3891819,32.4383572 31.4339623,31.31852 C32.4779874,30.2015042 33,28.7595732 33,26.9927271 C33,25.225881 32.4779874,23.78395 31.4339623,22.6669342 C30.3868382,21.5542924 28.9575069,20.9523941 27.4824798,21.0029458 L27.4824798,21.0029458 Z" id="Path"></path>
            <path d="M28,9 C18.0588745,9 10,17.0588745 10,27 C10,36.9411255 18.0588745,45 28,45 C37.9411255,45 46,36.9411255 46,27 C45.9877935,17.063935 37.936065,9.01220648 28,9 Z M38.1963077,37.1990769 L32.9347692,37.1990769 L32.9347692,34.7926154 C31.36,36.7790769 29.1446154,37.7713846 26.2886154,37.769541 C23.5692308,37.769541 21.2366154,36.7292308 19.2907692,34.6486154 C17.3449231,32.568 16.3710769,30.0184615 16.3692308,27 C16.3692308,23.9815385 17.3412308,21.432 19.2852308,19.3513846 C21.2292308,17.2707692 23.5618462,16.2304615 26.2830769,16.2304615 C29.1390769,16.2304615 31.3544615,17.2227692 32.9292308,19.2073846 L32.9292308,16.8009231 L38.1907692,16.8009231 L38.1963077,37.1990769 Z" id="Shape" fill-rule="nonzero"></path>
            <path d="M56,26.9944809 C56,24.9441507 54.1548,23.13114 53.7124,21.1994696 C53.256,19.2181276 54.1072,16.7842228 53.2336,15.007086 C52.36,13.2299492 49.8736,12.3413808 48.6164,10.7794873 C47.3592,9.21759374 47.04,6.67054828 45.458,5.41772201 C43.876,4.16489575 41.286,4.44912726 39.4436,3.5743565 C37.6012,2.69958574 36.2404,0.538874361 34.2328,0.0863115696 C32.2728,-0.349694046 30.0804,1.00799433 28,1.00799433 C25.9196,1.00799433 23.7132,-0.349694046 21.7672,0.0863115696 C19.7596,0.536114832 18.3708,2.71062385 16.5564,3.5743565 C14.742,4.43808914 12.124,4.17317434 10.542,5.41772201 C8.96,6.66226969 8.652,9.2231128 7.3836,10.7905254 C6.1152,12.357938 3.6568,13.1968349 2.7664,15.0181242 C1.876,16.8394134 2.744,19.2291657 2.2876,21.1994696 C1.8452,23.13114 0,24.9441507 0,26.9944809 C0,29.0448111 1.8452,30.8578218 2.2876,32.7894923 C2.744,34.7708343 1.8928,37.204739 2.7664,38.9818758 C3.64,40.7590127 6.1264,41.6475811 7.3836,43.2094746 C8.6408,44.7713681 8.9516,47.3294517 10.542,48.582278 C12.1324,49.8351043 14.714,49.5508727 16.5564,50.4256435 C18.3988,51.3004143 19.7596,53.4611256 21.7672,53.9136884 C23.7272,54.349694 25.9196,52.9920057 28,52.9920057 C30.0804,52.9920057 32.2868,54.349694 34.2328,53.9136884 C36.2404,53.4638852 37.6292,51.2866166 39.4436,50.4256435 C41.258,49.5646704 43.876,49.8268257 45.458,48.582278 C47.04,47.3377303 47.348,44.7768872 48.6164,43.2094746 C49.8848,41.642062 52.3432,40.7976461 53.2336,38.9818758 C54.124,37.1661056 53.256,34.7708343 53.7124,32.7894923 C54.1548,30.8578218 56,29.0448111 56,26.9944809 Z M28,46.0352325 C17.3298586,46.0352325 8.68,37.5103977 8.68,26.9944809 C8.68,16.4785642 17.3298586,7.95372936 28,7.95372936 C38.6701414,7.95372936 47.32,16.4785642 47.32,26.9944809 C47.3091962,37.5059841 38.6656631,46.0245849 28,46.0352325 Z" id="Shape" fill-rule="nonzero"></path>
            <path d="M87.3940598,13.6927644 L92,13.6927644 L92,40.3072356 L87.3940598,40.3072356 L87.3940598,35.7296362 C85.1096321,39.2423954 81.7757028,40.9987751 77.3922718,40.9987751 C73.8044077,41.0487057 70.3626447,39.5701582 67.9161617,36.9279313 C65.3053872,34.2121689 64,30.9028585 64,27 C64,23.0971415 65.3053872,19.7878311 67.9161617,17.0720687 C70.3626447,14.4298418 73.8044077,12.9512943 77.3922718,13.0012249 C81.7664316,13.0012249 85.1040694,14.7576046 87.4051853,18.2703638 L87.3940598,13.6927644 Z M77.973577,36.5191671 C80.6548128,36.5191671 82.8956657,35.6055137 84.6961359,33.7782069 C86.4966061,31.9509001 87.395914,29.6886981 87.3940627,26.9916007 C87.3940627,24.2963699 86.4947518,22.0341678 84.6961359,20.2049946 C82.8975199,18.3758213 80.656667,17.4677674 77.973577,17.4808329 C75.4665985,17.4200817 73.0477844,18.4132801 71.2983014,20.2217931 C69.4978312,22.0509664 68.5985232,24.3131684 68.6003746,27.0083993 C68.6022317,29.7036301 69.5015397,31.9658322 71.2983014,33.7950054 C73.0506479,35.5973488 75.4690936,36.5843098 77.973577,36.5191671 L77.973577,36.5191671 Z" id="Shape" fill-rule="nonzero"></path>
            <path d="M125.927674,13 C128.930417,13 131.359824,13.9560135 133.215894,15.8680406 C135.071965,17.7800677 136,20.363888 136,23.6195017 L136,39.9889265 L131.338242,39.9889265 L131.338242,23.7966779 C131.338242,21.7665334 130.803378,20.1876346 129.733651,19.0599815 C128.663924,17.9323285 127.234806,17.3712704 125.446297,17.3768071 C123.443843,17.3768071 121.848636,18.0347585 120.660676,19.3506613 C119.472715,20.6665641 118.868413,22.6727161 118.84777,25.3691172 L118.84777,40 L114.197272,40 L114.197272,23.7966779 C114.197272,21.7665334 113.687744,20.1876346 112.668688,19.0599815 C111.649632,17.9323285 110.265555,17.368502 108.516457,17.368502 C106.66858,17.3216973 104.887288,18.0481539 103.615418,19.3672716 C102.312978,20.7016303 101.661758,22.7022455 101.661758,25.3691172 L101.661758,40 L97,40 L97,13.6837896 L101.675834,13.6837896 L101.675834,17.2107044 C103.48874,14.4035681 106.14429,13 109.642486,13 C113.247654,13 115.875054,14.4912335 117.524686,17.4737004 C119.377003,14.4912335 122.177999,13 125.927674,13 Z" id="Path"></path>
            <path d="M162.394975,13.6916019 L167,13.6916019 L167,40.3084 L162.394975,40.3084 L162.394975,35.7304004 C160.101731,39.2434668 156.768464,41 152.395173,41 C148.687423,41 145.529348,39.6429334 142.920945,36.9288003 C140.312543,34.2146671 139.005562,30.9050674 139,27 C139,23.0968012 140.305128,19.7872015 142.915384,17.0712016 C145.52564,14.3552018 148.68557,12.9981353 152.395173,13 C156.770318,13 160.107293,14.7565351 162.406098,18.2696016 L162.394975,13.6916019 Z M152.976363,36.5200003 C155.657066,36.5200003 157.897474,35.606267 159.697587,33.7788005 C161.497699,31.951334 162.396829,29.6889341 162.394978,26.991601 C162.394978,24.2961345 161.495845,22.0337346 159.697587,20.2044014 C157.899328,18.3750682 155.65892,17.4669349 152.976363,17.4800016 C150.469882,17.419245 148.051549,18.4125303 146.302413,20.2212014 C144.502301,22.0505346 143.602245,24.3129345 143.602245,27.008401 C143.602245,29.7038674 144.502301,31.9662673 146.302413,33.7956005 C148.054412,35.5981014 150.472377,36.5851488 152.976363,36.5200003 L152.976363,36.5200003 Z" id="Shape" fill-rule="nonzero"></path>
            <path d="M175.652898,17.932935 C177.187933,14.6424527 179.9703,12.9981415 184,13 L184,17.8269105 C181.717128,17.7208859 179.755695,18.3216919 178.115701,19.6293285 C176.475706,20.936965 175.654772,23.0416461 175.652898,25.9433717 L175.652898,40 L171,40 L171,13.4771122 L175.652898,13.4771122 L175.652898,17.932935 Z" id="Path"></path>
            <path d="M207.39406,13.6916019 L212,13.6916019 L212,40.3084 L207.39406,40.3084 L207.39406,35.7304004 C205.100361,39.2434668 201.766432,41 197.392272,41 C193.683785,41 190.525082,39.6429334 187.916162,36.9288003 C185.307241,34.2146671 184.001854,30.9050674 184,27 C184,23.0968012 185.305387,19.7872015 187.916162,17.0712016 C190.526936,14.3552018 193.68564,12.9981353 197.392272,13 C201.766432,13 205.104069,14.7565351 207.405185,18.2696016 L207.39406,13.6916019 Z M197.973577,36.5200003 C200.654813,36.5200003 202.895666,35.606267 204.696136,33.7788005 C206.496606,31.951334 207.395914,29.6889341 207.394063,26.991601 C207.394063,24.2961345 206.494752,22.0337346 204.696136,20.2044014 C202.89752,18.3750682 200.656667,17.4669349 197.973577,17.4800016 C195.466598,17.419245 193.047784,18.4125303 191.298301,20.2212014 C189.499685,22.0505346 188.59945,24.3129345 188.597593,27.008401 C188.595742,29.7038674 189.495977,31.9662673 191.298301,33.7956005 C193.050648,35.5981014 195.469094,36.5851488 197.973577,36.5200003 L197.973577,36.5200003 Z" id="Shape" fill-rule="nonzero"></path>
        </g>
    </g>
</svg>