<svg width="227" height="36" viewBox="0 0 227 36" fill="none" xmlns="http://www.w3.org/2000/svg">
<path fill-rule="evenodd" clip-rule="evenodd" d="M0 35.4985V0.501465H47.6802V35.4985H0ZM3.62965 31.9534H44.0593V3.93452H3.62965V31.9534ZM23.347 26.8982H19.7056V19.7165H12.1419V26.8982H8.50342V9.00446H12.1419V16.136H19.7056V9.00446H23.347V26.8982ZM39.0188 8.9809H26.9004V12.5614H39.0188V8.9809ZM26.9004 16.136H39.0188V19.7165H26.9004V16.136ZM39.0188 23.297H26.9004V26.8775H39.0188V23.297ZM221.619 11.5091C221.618 11.1527 221.713 10.8026 221.892 10.4951C221.978 10.3473 222.081 10.211 222.201 10.0896C222.323 9.96915 222.459 9.86364 222.606 9.77524C222.913 9.59517 223.263 9.50065 223.619 9.50147C223.798 9.50195 223.977 9.52582 224.151 9.57245C224.317 9.61892 224.477 9.68709 224.627 9.77524C224.923 9.95008 225.171 10.1979 225.346 10.4951C225.432 10.6473 225.499 10.8089 225.548 10.9768C225.595 11.1503 225.619 11.3293 225.619 11.5091C225.618 11.6888 225.595 11.8678 225.548 12.0414C225.499 12.2076 225.431 12.3676 225.346 12.5179C225.258 12.6659 225.153 12.8022 225.032 12.9235C224.786 13.1647 224.483 13.3392 224.151 13.4305C223.977 13.4771 223.798 13.501 223.619 13.5015C223.448 13.4993 223.278 13.4755 223.113 13.4305C222.936 13.3837 222.766 13.3156 222.606 13.2277C222.461 13.1376 222.325 13.0323 222.201 12.9134C222.081 12.792 221.978 12.6556 221.892 12.5078C221.802 12.3596 221.734 12.1991 221.69 12.0313C221.642 11.8614 221.618 11.6856 221.619 11.5091ZM221.892 11.5091C221.892 11.6666 221.912 11.8234 221.953 11.9755C221.991 12.1231 222.049 12.2647 222.125 12.3963C222.199 12.5276 222.289 12.6486 222.394 12.7562C222.497 12.8595 222.613 12.9497 222.738 13.0249C223.004 13.1839 223.309 13.2664 223.619 13.2632C223.85 13.2649 224.08 13.2183 224.292 13.1263C224.71 12.9482 225.041 12.6133 225.214 12.1935C225.306 11.9771 225.352 11.7442 225.351 11.5091C225.351 11.3499 225.331 11.1914 225.29 11.0376C225.25 10.8885 225.19 10.7453 225.113 10.6117C225.04 10.4818 224.949 10.3624 224.844 10.2569C224.741 10.1485 224.623 10.0547 224.495 9.97802C224.365 9.90123 224.226 9.8432 224.08 9.80565C223.93 9.76073 223.775 9.73851 223.619 9.73975C223.386 9.73761 223.155 9.78424 222.941 9.87664C222.736 9.96744 222.55 10.0965 222.394 10.2569C222.231 10.422 222.103 10.6177 222.016 10.8325C221.929 11.0474 221.885 11.2773 221.887 11.5091H221.892ZM223.224 11.7575V12.7258H222.778V10.2822H223.568C223.813 10.2642 224.057 10.3227 224.267 10.4495C224.343 10.5092 224.404 10.5866 224.443 10.6749C224.483 10.7632 224.501 10.8598 224.495 10.9565C224.498 11.1161 224.447 11.272 224.348 11.3975C224.235 11.5276 224.082 11.6153 223.913 11.646C223.943 11.6653 223.97 11.6893 223.994 11.7169C224.016 11.7457 224.037 11.7762 224.054 11.8082L224.682 12.7258H224.297C224.271 12.7278 224.244 12.7227 224.22 12.7112C224.196 12.6996 224.176 12.6819 224.161 12.6599L223.609 11.8285L223.553 11.7727C223.518 11.7662 223.482 11.7662 223.447 11.7727L223.224 11.7575ZM223.224 11.4432H223.538C223.622 11.4528 223.707 11.4511 223.791 11.4381C223.853 11.4257 223.91 11.3978 223.958 11.357C224.003 11.3216 224.036 11.2741 224.054 11.2201C224.076 11.1616 224.086 11.0998 224.085 11.0376C224.085 10.9771 224.075 10.917 224.054 10.8601C224.038 10.8118 224.011 10.7682 223.973 10.7334C223.926 10.6992 223.873 10.6734 223.816 10.6574C223.737 10.6485 223.658 10.6485 223.578 10.6574H223.219L223.224 11.4432ZM73.6237 25.9367H76.8553V10.0515H73.6237V16.3838H66.9118V10.0515H63.6802V25.9367H66.9118V19.5602H73.6237V25.9367ZM95.8231 17.9941C95.8231 12.8652 92.0003 9.70642 87.7091 9.70642C83.4413 9.70642 79.6155 12.8947 79.6155 17.9941C79.6155 23.0935 83.4179 26.2523 87.7091 26.2523C92.0003 26.2523 95.8231 23.123 95.8231 17.9941ZM92.6442 17.9705C92.6442 21.554 90.1532 23.2558 87.7091 23.2558C85.2854 23.2558 82.7944 21.554 82.7944 17.9705C82.7944 14.3871 85.2649 12.6853 87.7091 12.6853C90.1532 12.6853 92.6442 14.3871 92.6442 17.9705ZM104.771 12.9773V25.922H101.669V12.9773H96.6924V10.0427H109.748V12.9773H104.771ZM112.605 10.0427V25.922H122.475V23.011H115.675V19.3361H122.451V16.5814H115.675V12.9537H122.475V10.0427H112.605ZM126.139 25.922V10.0427H129.213V22.9667H136.238V25.9161L126.139 25.922ZM139.505 10.0427V25.922L148.796 25.9338V24.6361H140.928V18.6312H148.81V17.3217H140.928V11.3404H148.796V10.0427H139.505ZM210.169 25.922V10.0427H219.46V11.3404H211.592V17.3217H219.474V18.6312H211.592V24.6361H219.46V25.9338L210.169 25.922ZM153.997 11.8123L163.534 25.922H165.047V10.0427H163.625V23.592L154.533 10.0427H152.575V25.922H153.997V11.8123ZM182.742 19.6929C182.751 21.0641 182.321 22.4016 181.517 23.508C180.714 24.6143 179.578 25.4307 178.278 25.8364C177.469 26.0838 176.629 26.2109 175.784 26.214C172.116 26.214 168.358 23.3236 168.358 17.9705C168.358 12.6617 172.116 9.75067 175.968 9.75067C179.326 9.75067 181.928 11.6766 182.815 14.5227L181.547 15.0595C180.772 12.5732 178.749 11.0484 175.968 11.0484C172.789 11.0484 169.766 13.4079 169.766 17.9705C169.766 22.5332 172.833 24.9369 175.813 24.9369C179.97 24.9369 181.328 21.7781 181.392 19.7637H175.567V18.4631H182.727L182.742 19.6929ZM187.141 10.0427V25.922H188.567V10.0427H187.141ZM204.294 25.922L194.755 11.8123V25.922H193.332V10.0427H195.29L204.382 23.592V10.0427H205.805V25.922H204.294Z" fill="#1A1A1A"/>
</svg>
