<?xml version="1.0" encoding="UTF-8"?>
<svg width="215px" height="55px" viewBox="0 0 215 55" version="1.1" xmlns="http://www.w3.org/2000/svg" xmlns:xlink="http://www.w3.org/1999/xlink">
    <title>utosia-2</title>
    <g id="Logotype---black" stroke="none" stroke-width="1" fill="none" fill-rule="evenodd">
        <g id="utosia-2" fill="#01060B">
            <path d="M27.5004019,7.1498955 C38.7392323,7.1498955 47.8501045,16.2607677 47.8501045,27.4995981 C47.8501045,38.7384285 38.7392323,47.8493007 27.5004019,47.8493007 C16.2615715,47.8493007 7.15069932,38.7384285 7.15069932,27.4995981 C7.16433643,16.2664212 16.267225,7.16353261 27.5004019,7.1498955 L27.5004019,7.1498955 Z M27.5004019,0 C16.3778527,0 6.35050137,6.70006197 2.09408608,16.9759575 C-2.16232922,27.251853 0.190419668,39.0799204 8.05524961,46.9447504 C15.9200796,54.8095803 27.748147,57.1623292 38.0240425,52.9059139 C48.299938,48.6494986 55,38.6221473 55,27.4995981 C55,20.2062512 52.1027292,13.2116208 46.9455542,8.0544458 C41.7883792,2.89727077 34.7937488,0 27.5004019,0 Z" id="Shape" fill-rule="nonzero"></path>
            <path d="M23.965203,16 L23.965203,28.6966292 C23.965203,29.3792135 23.9928197,30.0758427 24.0425297,30.7865169 C24.0814824,31.453863 24.2357321,32.1090091 24.4982049,32.7219101 C24.7547929,33.30049 25.173679,33.7890951 25.7022922,34.1264045 C26.2546258,34.4859551 27.0196078,34.6685393 28.01657,34.6685393 C29.0135322,34.6685393 29.7757526,34.4859551 30.3142778,34.1264045 C30.8364022,33.7822256 31.2527232,33.2954961 31.5156034,32.7219101 C31.7887141,32.1118147 31.948809,31.4557008 31.9878487,30.7865169 C32.0375587,30.0758427 32.0651754,29.3820225 32.0651754,28.6966292 L32.0651754,16 L38,16 L38,29.5337079 C38,33.1666667 37.1834668,35.8192884 35.5504004,37.491573 C33.9173341,39.1638577 31.4060573,40 28.01657,40 C24.6252416,40 22.1084415,39.1638577 20.4661696,37.491573 C18.8238976,35.8192884 18.0018411,33.1666667 18,29.5337079 L18,16 L23.965203,16 Z" id="Path"></path>
            <path d="M84.6512268,40.9198133 C82.4150424,42.9732711 79.5313002,44 76,44 C72.4686998,44 69.5858748,42.9732711 67.3515249,40.9198133 C65.117175,38.8663555 64,36.1128553 64,32.6593127 L64,11 L69.208897,11 L69.208897,32.3372932 C69.208897,34.3123462 69.7748223,35.8860416 70.9066728,37.0583793 C72.0385233,38.230717 73.736299,38.8168859 76,38.8168859 C78.263701,38.8168859 79.9623939,38.230717 81.0960789,37.0583793 C82.2297638,35.8860416 82.7956891,34.3123462 82.7938546,32.3372932 L82.7938546,11 L88,11 L88,32.6593127 C88,36.1128553 86.8837423,38.8663555 84.6512268,40.9198133 Z" id="Path"></path>
            <polygon id="Path" points="114 12 114 17.0281763 105.115692 17.0281763 105.115692 44 99.9281544 44 99.9281544 17.0281763 91 17.0281763 91 12"></polygon>
            <path d="M143.193376,39.204 C139.99636,42.4013333 136.096258,44 131.49307,44 C126.889882,44 122.9907,42.4013333 119.795524,39.204 C116.598508,36.0085 115,32.1071667 115,27.5 C115,22.8928333 116.598508,18.9915 119.795524,15.796 C122.9907,12.5986667 126.889882,11 131.49307,11 C136.096258,11 139.99636,12.5986667 143.193376,15.796 C146.386711,18.9915 147.9889,22.8928333 148,27.5 C148.010987,32.1071667 146.408797,36.0085 143.193376,39.204 Z M123.475682,35.65925 C125.640156,37.82625 128.308937,38.90975 131.482026,38.90975 C134.655116,38.90975 137.328498,37.82625 139.502175,35.65925 C141.67033,33.49225 142.754407,30.7725 142.754407,27.5 C142.754407,24.2275 141.674011,21.50775 139.513218,19.34075 C137.346904,17.17375 134.673521,16.09025 131.49307,16.09025 C128.312618,16.09025 125.643837,17.17375 123.486725,19.34075 C121.313049,21.50775 120.22621,24.2275 120.22621,27.5 C120.22621,30.7725 121.309368,33.49225 123.475682,35.65925 L123.475682,35.65925 Z" id="Shape" fill-rule="nonzero"></path>
            <path d="M161.987483,44 C158.998032,44 156.460056,43.3032285 154.373556,41.9098996 C152.320357,40.5614817 150.778076,38.5414919 150,36.1816682 L154.395141,33.5499268 C155.639846,37.1285818 158.214695,38.9169927 162.119688,38.9151594 C164.042506,38.9151594 165.485968,38.5283273 166.450075,37.7546631 C167.382808,37.0435377 167.92057,35.9165774 167.893538,34.729673 C167.944184,33.5230288 167.34938,32.3831489 166.339455,31.7514326 C165.3034,31.0731015 163.467819,30.3232706 160.832713,29.5019399 C159.612869,29.1418736 158.412384,28.7168751 157.236198,28.2286941 C156.215157,27.7788882 155.240807,27.2261399 154.327689,26.5786994 C153.347898,25.9147009 152.559149,24.9968724 152.042432,23.9194581 C151.515703,22.7521531 151.257323,21.4777097 151.286975,20.1932202 C151.286975,17.364396 152.263673,15.1249866 154.217069,13.474992 C156.170465,11.8249973 158.524073,11 161.277893,11 C163.763706,11 165.939243,11.621498 167.804502,12.8644939 C169.690345,14.125988 171.187073,15.9060978 172.121399,17.9987273 L167.804502,20.545219 C166.500439,17.5752287 164.324903,16.0902335 161.277893,16.0902335 C159.795759,16.0902335 158.61131,16.4468156 157.724547,17.15998 C156.848958,17.8454921 156.352457,18.9200967 156.391705,20.0447206 C156.353969,21.148303 156.860291,22.1979844 157.740736,22.8414616 C158.640089,23.5234593 160.276013,24.2430403 162.648508,25.0002045 C163.833856,25.3943699 164.699933,25.6895356 165.24674,25.8857017 C165.793547,26.0818677 166.56879,26.3926167 167.572469,26.8179486 C168.375153,27.1339617 169.130689,27.5625025 169.817255,28.0911945 C170.390164,28.5846279 170.930922,29.1155842 171.436091,29.6806893 C172.004535,30.301751 172.423027,31.0493854 172.658313,31.8641823 C172.90124,32.7715173 173.015716,33.7095785 172.998268,34.6499232 C172.998268,37.5282472 171.984697,39.8089065 169.957554,41.491901 C167.930411,43.1748955 165.273721,44.0108928 161.987483,44 Z" id="Path"></path>
            <polygon id="Path" points="177 12 182 12 182 44 177 44"></polygon>
            <path d="M209.424023,44 L207.222044,37.5557476 L193.835327,37.5557476 L191.630617,44 L186,44 L197.419689,12 L203.624023,12 L215,44 L209.424023,44 Z M195.531889,32.6160761 L205.514555,32.6160761 L200.52049,18.1704408 L195.531889,32.6160761 Z" id="Shape" fill-rule="nonzero"></path>
        </g>
    </g>
</svg>