<svg class="img-fluid" id="outputsvg" xmlns="http://www.w3.org/2000/svg" style="transform: none; transform-origin: 50% 50%; cursor: move; max-height: 509.68px;" width="694" height="134" viewBox="0 0 6940 1340"><g id="l4OBZasRU3MGHfsn5W4fP7x" fill="rgb(255,255,255)" style="transform: none;"><g><path id="pYrW0B2Zk" d="M3267 866 c-97 -40 -166 -107 -204 -196 -37 -85 -33 -222 9 -303 33 -66 112 -141 181 -173 54 -25 74 -29 152 -29 78 0 98 4 153 29 81 38 162 123 192 203 32 84 25 215 -14 291 -36 71 -104 138 -174 170 -83 39 -213 43 -295 8z m231 -122 c87 -36 131 -110 132 -219 0 -62 -4 -77 -32 -125 -106 -176 -374 -130 -417 71 -25 116 29 230 129 273 46 20 141 20 188 0z"></path><path id="p1FPADVtJD" d="M4248 877 c-178 -67 -275 -228 -246 -411 21 -137 117 -246 252 -288 190 -58 395 44 446 223 8 26 6 28 -49 43 -32 9 -62 16 -67 16 -5 0 -17 -20 -27 -45 -79 -192 -372 -153 -416 56 -25 114 25 222 126 273 47 24 146 21 201 -5 45 -22 86 -73 98 -122 6 -26 10 -28 38 -23 17 4 48 9 69 13 42 6 42 7 5 95 -24 57 -101 132 -166 161 -59 26 -208 34 -264 14z"></path><path id="p1C5FM75zN" d="M743 598 l-122 -283 -178 -5 c-167 -5 -182 -7 -236 -33 -41 -18 -80 -49 -128 -99 -38 -40 -69 -75 -68 -78 0 -3 21 -23 46 -45 l45 -39 56 61 c93 100 84 97 336 103 l221 5 105 252 c58 138 107 250 110 248 3 -2 53 -116 110 -254 l105 -251 73 0 c55 0 73 3 70 13 -2 7 -68 165 -148 350 l-145 337 -66 0 -65 0 -121 -282z"></path><path id="p2OTrt5fC" d="M1550 530 l0 -350 265 0 265 0 0 60 0 60 -200 0 -200 0 0 80 0 80 185 0 185 0 0 65 0 65 -185 0 -185 0 0 80 0 80 200 0 200 0 0 65 0 65 -265 0 -265 0 0 -350z"></path><path id="p16iTuOOsb" d="M2340 530 l0 -350 65 0 65 0 0 285 0 285 185 0 185 0 0 65 0 65 -250 0 -250 0 0 -350z"></path><path id="pDWqzTAi8" d="M4960 530 l0 -350 65 0 65 0 0 350 0 350 -65 0 -65 0 0 -350z"></path><path id="p15YnPA2xa" d="M5560 590 l0 -290 -120 0 -120 0 0 -60 0 -60 305 0 305 0 0 60 0 60 -115 0 -115 0 0 290 0 290 -70 0 -70 0 0 -290z"></path><path id="p11MYpDHl7" d="M6370 764 l0 -115 -131 -227 c-73 -125 -134 -230 -136 -234 -2 -5 30 -8 71 -8 l75 0 85 148 c47 81 91 155 98 164 11 16 24 -2 107 -147 l94 -165 80 0 79 0 -20 33 c-11 17 -75 124 -141 236 l-121 203 0 114 0 114 -70 0 -70 0 0 -116z"></path></g></g><g id="l7S322R1VA4jJLJcEEm9BIk" fill="rgb(10,36,251)" style="transform: none;"><g><path id="p1Aapidpjt" d="M3295 1324 c-115 -9 -115 -9 -115 -63 l0 -49 82 -7 c46 -4 110 -7 143 -7 33 0 97 3 143 7 l82 7 0 48 c0 41 -3 49 -22 53 -32 8 -253 15 -313 11z"></path></g></g></svg>
